<mxfile host="app.diagrams.net" agent="Mozilla/5.0 (Windows NT 10.0; Win64; x64) AppleWebKit/537.36 (KHTML, like Gecko) Chrome/131.0.0.0 Safari/537.36" version="24.8.6">
  <diagram name="Page-1" id="JcaQ8cUJTkGUMzP0061v">
    <mxGraphModel dx="2954" dy="1132" grid="1" gridSize="10" guides="1" tooltips="1" connect="1" arrows="1" fold="1" page="1" pageScale="1" pageWidth="850" pageHeight="1100" math="0" shadow="0">
      <root>
        <mxCell id="0" />
        <mxCell id="1" parent="0" />
        <mxCell id="H6vsr74ZSyMzZ4jnbyoI-1" value="Zabbix Server" style="sketch=0;outlineConnect=0;fontColor=#232F3E;gradientColor=none;fillColor=#ff0000;strokeColor=none;dashed=0;verticalLabelPosition=bottom;verticalAlign=top;align=center;html=1;fontSize=12;fontStyle=0;aspect=fixed;pointerEvents=1;shape=mxgraph.aws4.traditional_server;" vertex="1" parent="1">
          <mxGeometry x="260" y="90" width="45" height="78" as="geometry" />
        </mxCell>
        <mxCell id="H6vsr74ZSyMzZ4jnbyoI-5" value="Zabbix Proxy" style="sketch=0;outlineConnect=0;fontColor=#232F3E;gradientColor=none;fillColor=#ff0000;strokeColor=none;dashed=0;verticalLabelPosition=bottom;verticalAlign=top;align=center;html=1;fontSize=12;fontStyle=0;aspect=fixed;pointerEvents=1;shape=mxgraph.aws4.traditional_server;" vertex="1" parent="1">
          <mxGeometry x="260" y="320" width="45" height="78" as="geometry" />
        </mxCell>
        <mxCell id="H6vsr74ZSyMzZ4jnbyoI-9" value="" style="endArrow=classic;startArrow=classic;html=1;rounded=0;edgeStyle=orthogonalEdgeStyle;curved=1;" edge="1" parent="1" source="H6vsr74ZSyMzZ4jnbyoI-5" target="H6vsr74ZSyMzZ4jnbyoI-1">
          <mxGeometry width="50" height="50" relative="1" as="geometry">
            <mxPoint x="315" y="139" as="sourcePoint" />
            <mxPoint x="540" y="139" as="targetPoint" />
            <Array as="points">
              <mxPoint x="200" y="359" />
              <mxPoint x="200" y="129" />
            </Array>
          </mxGeometry>
        </mxCell>
        <mxCell id="H6vsr74ZSyMzZ4jnbyoI-10" value="Zabbix Database" style="sketch=0;outlineConnect=0;fontColor=#232F3E;gradientColor=none;fillColor=#C925D1;strokeColor=none;dashed=0;verticalLabelPosition=bottom;verticalAlign=top;align=center;html=1;fontSize=12;fontStyle=0;aspect=fixed;pointerEvents=1;shape=mxgraph.aws4.aurora_instance;" vertex="1" parent="1">
          <mxGeometry x="520" y="90" width="78" height="78" as="geometry" />
        </mxCell>
        <mxCell id="H6vsr74ZSyMzZ4jnbyoI-11" value="" style="endArrow=classic;startArrow=classic;html=1;rounded=0;" edge="1" parent="1" source="H6vsr74ZSyMzZ4jnbyoI-1" target="H6vsr74ZSyMzZ4jnbyoI-10">
          <mxGeometry width="50" height="50" relative="1" as="geometry">
            <mxPoint x="400" y="500" as="sourcePoint" />
            <mxPoint x="450" y="450" as="targetPoint" />
          </mxGeometry>
        </mxCell>
        <mxCell id="H6vsr74ZSyMzZ4jnbyoI-12" value="AWS RDS Aurora PostgreSQL Cluster Instance 01" style="sketch=0;outlineConnect=0;fontColor=#232F3E;gradientColor=none;fillColor=#C925D1;strokeColor=none;dashed=0;verticalLabelPosition=bottom;verticalAlign=top;align=center;html=1;fontSize=12;fontStyle=0;aspect=fixed;pointerEvents=1;shape=mxgraph.aws4.aurora_instance;" vertex="1" parent="1">
          <mxGeometry x="520" y="300" width="78" height="78" as="geometry" />
        </mxCell>
        <mxCell id="H6vsr74ZSyMzZ4jnbyoI-14" value="AWS RDS Aurora PostgreSQL Cluster Instance 02" style="sketch=0;outlineConnect=0;fontColor=#232F3E;gradientColor=none;fillColor=#C925D1;strokeColor=none;dashed=0;verticalLabelPosition=bottom;verticalAlign=top;align=center;html=1;fontSize=12;fontStyle=0;aspect=fixed;pointerEvents=1;shape=mxgraph.aws4.aurora_instance;" vertex="1" parent="1">
          <mxGeometry x="520" y="420" width="78" height="78" as="geometry" />
        </mxCell>
        <mxCell id="H6vsr74ZSyMzZ4jnbyoI-17" value="" style="endArrow=classic;html=1;rounded=0;" edge="1" parent="1" source="H6vsr74ZSyMzZ4jnbyoI-5" target="H6vsr74ZSyMzZ4jnbyoI-12">
          <mxGeometry width="50" height="50" relative="1" as="geometry">
            <mxPoint x="250" y="580" as="sourcePoint" />
            <mxPoint x="300" y="530" as="targetPoint" />
          </mxGeometry>
        </mxCell>
        <mxCell id="H6vsr74ZSyMzZ4jnbyoI-18" value="" style="endArrow=classic;html=1;rounded=0;" edge="1" parent="1" source="H6vsr74ZSyMzZ4jnbyoI-5" target="H6vsr74ZSyMzZ4jnbyoI-14">
          <mxGeometry width="50" height="50" relative="1" as="geometry">
            <mxPoint x="315" y="367" as="sourcePoint" />
            <mxPoint x="530" y="352" as="targetPoint" />
          </mxGeometry>
        </mxCell>
      </root>
    </mxGraphModel>
  </diagram>
</mxfile>
